# xmcd
# Copyright (C) 1995-1998 Ti Kan
#
# Track frame offsets:
#       150
#       83156
#       147382
#       221998
#
# Disc length: 4001 seconds
#
# Revision: 0
# Processed by: cddbd v1.5.2PL0 Copyright (c) Steve Scherf et al.
# Submitted via: CD-Transfer v1.0
#
DISCID=3a0f9f04
DTITLE=Friday Night Life - 
DYEAR=09
DGENRE=
TTITLE0=Mixed By Dj René 1
TTITLE1=Mixed By Dj René 2
TTITLE2=Mixed By Dj René 3
TTITLE3=Mixed By Dj René 4
EXTD=
EXTT0=
EXTT1=
EXTT2=
EXTT3=
PLAYORDER=
